<svg width="40" height="40" viewBox="0 0 40 40" fill="none" xmlns="http://www.w3.org/2000/svg">
<path fill-rule="evenodd" clip-rule="evenodd" d="M1.756 28.8117C0.531244 30.6355 -0.251532 31.604 0.0739593 34.0569C0.30826 35.8181 1.25545 37.4782 2.73979 38.4533C4.36525 39.5223 6.45398 39.7073 8.20058 38.8074C10.0843 37.8356 10.6008 36.734 11.3463 34.8603L28.6153 34.8629C29.3788 36.7713 29.8847 37.8469 31.8083 38.8314C35.3168 40.6266 39.6674 37.9454 39.9243 33.6768C39.9882 32.6171 39.8231 31.5734 39.3878 30.6049C38.8806 29.4753 38.4613 29.3229 37.8815 28.4749C38.6716 26.7623 38.9438 25.3398 38.1025 23.5413C36.6381 20.4102 32.5824 19.7605 30.3413 22.5721C29.8394 23.2012 29.8634 24.0911 29.5419 24.8379C29.233 25.5561 28.8696 26.0993 28.4336 26.7343C31.8902 27.2854 29.6357 25.1628 31.6958 23.1532C33.1662 21.7201 35.2117 21.9851 36.493 23.5193C38.4726 25.8903 36.2281 27.8998 36.2481 28.6846C36.264 29.3302 38.6536 30.3127 38.5977 33.336C38.5198 37.5214 33.5303 39.6454 30.8758 36.3399C28.1254 32.9153 33.7047 33.4059 19.9103 33.4059H13.0457C12.3048 33.4059 10.3858 33.0924 10.1276 33.9643C9.80474 35.0533 9.82138 35.4354 9.05458 36.3792C6.37211 39.6827 1.32667 37.4409 1.36394 33.1909C1.37193 32.267 1.63685 31.3178 2.15138 30.5503C2.61931 29.8528 3.72558 29.2131 3.27429 28.4869C2.69053 27.5484 2.28051 27.4152 2.182 26.1026C1.93172 22.7685 5.60198 21.0186 7.80454 23.1905C9.7262 25.0855 7.49635 27.3407 11.1733 26.733C10.734 26.1086 10.288 25.4969 10.0457 24.7873C9.7475 23.9154 9.6583 23.285 9.07388 22.5522C7.9989 21.205 6.24165 20.514 4.5463 20.8961C0.98986 21.6982 -0.0864563 25.7951 1.756 28.8117Z" fill="#222327"/>
<path fill-rule="evenodd" clip-rule="evenodd" d="M20.4376 14.4333C22.4045 13.9607 23.3204 16.3896 21.3481 16.8921C19.3346 17.4047 18.3029 14.9452 20.4376 14.4333ZM19.4817 24.7971L19.5197 24.7658C19.756 24.8444 20.2345 26.3966 21.9352 26.8559C24.1544 27.4556 26.7211 26.2402 28.059 24.1661C28.4424 23.571 29.6392 21.441 28.6234 21.0197C27.7348 20.6516 27.3834 22.7203 26.8216 23.5624C26.2185 24.4656 25.1722 25.1659 24.1251 25.4121C20.5574 26.2522 20.176 23.169 20.2086 20.4466C21.9878 19.9134 23.9135 17.6157 23.7963 15.6747C23.6512 13.2718 20.3031 12.5316 18.3954 12.9077C15.8807 13.4043 14.4596 15.1136 15.7529 17.6583C17.2106 20.5231 18.7935 19.9627 18.8653 20.796C19.1249 23.7913 17.373 27.1175 13.6715 24.9043C12.7802 24.3711 12.1712 23.5863 11.7272 22.6545C11.5621 22.3083 11.3058 21.3119 11.1601 21.1555C10.7414 20.7088 9.99722 21.0503 10.0212 21.7292C10.0844 23.5218 12.0513 25.8175 13.6655 26.4838C15.8887 27.4024 18.3681 27.1827 19.4817 24.7978V24.7971ZM23.7058 11.1305C23.1939 9.941 22.6987 8.75752 23.4934 7.48018C24.2256 6.30402 25.6281 6.26209 26.6652 7.06949C28.8364 8.75819 28.8338 12.9563 26.0927 12.7732C27.595 12.2847 28.047 10.7005 27.3401 9.31332L25.7206 10.5407L26.2591 8.45533C24.3508 7.9814 23.6612 9.51367 23.7058 11.1298V11.1305ZM24.5511 5.1445C19.5789 6.15625 21.9006 15.0417 26.7903 14.1744C31.7425 13.2958 29.4708 4.1434 24.5511 5.1445ZM13.8625 10.367L12.301 9.15157C11.8423 9.63282 11.8031 10.5481 11.9948 11.1624C12.2231 11.8939 12.514 12.0903 13.0797 12.489C10.3187 12.2607 10.7208 8.70094 12.3163 7.05751C13.135 6.21483 14.4529 5.88601 15.4234 6.70007C16.4664 7.57337 16.2135 9.0444 15.9472 10.178C15.5113 9.45243 15.6204 8.54053 14.3005 8.26429C12.8315 7.95744 13.4884 8.55583 13.8625 10.367ZM13.6262 4.84298C8.46096 5.69764 8.48292 14.7275 13.6429 13.8888C18.7895 13.0515 18.7662 3.99297 13.6262 4.84298ZM22.9836 0.633559C22.2421 0.753371 22.1369 1.62734 22.6128 1.94418C23.0954 2.26501 24.3155 1.58807 25.5995 3.49908C25.915 3.96901 26.0481 4.71052 26.6944 4.62998C28.467 4.40899 25.6521 0.203565 22.9836 0.633559ZM14.5847 0.649534C13.4438 0.813943 12.508 1.52283 11.8477 2.44007C10.2368 4.68256 11.851 5.00938 12.3076 4.33177C12.9313 3.40656 13.2601 2.38482 14.5601 2.0986C15.0992 1.98012 16.079 2.26234 16.0311 1.30651C15.9912 0.519737 15.1545 0.567662 14.584 0.650199L14.5847 0.649534Z" fill="#222327"/>
</svg>
