<svg width="20" height="20" viewBox="0 0 20 20" xmlns="http://www.w3.org/2000/svg">
    <path fill-rule="evenodd" clip-rule="evenodd"
          d="M9.99996 17.5C10.1762 17.5 10.428 17.3856 10.6126 17.2794C15.3373 14.3382 18.3333 10.915 18.3333 7.43464C18.3333 4.54248 16.294 2.5 13.575 2.5C12.0225 2.5 10.7636 3.21895 9.99996 4.3219C9.25306 3.22712 7.97747 2.5 6.42493 2.5C3.7059 2.5 1.66663 4.54248 1.66663 7.43464C1.66663 10.915 4.6626 14.3382 9.39573 17.2794C9.57196 17.3856 9.82373 17.5 9.99996 17.5ZM9.99999 16.1193C9.96642 16.1193 9.90768 16.0785 9.83215 16.0213C6.31587 13.75 3.01778 10.4739 3.01778 7.43469C3.01778 5.26149 4.46122 3.81541 6.40818 3.81541C7.98589 3.81541 8.89224 4.77129 9.42933 5.58828C9.65592 5.91508 9.79858 6.00495 9.99999 6.00495C10.2014 6.00495 10.3273 5.90691 10.5707 5.58828C11.1497 4.78763 12.0225 3.81541 13.5918 3.81541C15.5388 3.81541 16.9822 5.26149 16.9822 7.43469C16.9822 10.4739 13.6841 13.75 10.1762 16.0213C10.0923 16.0785 10.0336 16.1193 9.99999 16.1193Z"/>
    <path fill-rule="evenodd" clip-rule="evenodd"
          d="M10 16.1194C9.96646 16.1194 9.90772 16.0785 9.83219 16.0213C6.31591 13.7501 3.01782 10.4739 3.01782 7.43471C3.01782 5.26151 4.46126 3.81543 6.40822 3.81543C7.98593 3.81543 8.89228 4.77131 9.42937 5.58831C9.65596 5.9151 9.79862 6.00497 10 6.00497C10.2014 6.00497 10.3273 5.90693 10.5707 5.58831C11.1497 4.78765 12.0225 3.81543 13.5918 3.81543C15.5388 3.81543 16.9822 5.26151 16.9822 7.43471C16.9822 10.4739 13.6842 13.7501 10.1763 16.0213C10.0923 16.0785 10.0336 16.1194 10 16.1194Z"/>
</svg>
