<svg width="14" height="11" viewBox="0 0 14 11" fill="none" xmlns="http://www.w3.org/2000/svg">
<path fill-rule="evenodd" clip-rule="evenodd" d="M11.9517 10.3333C13.0386 10.3333 13.6667 9.72972 13.6667 8.53413V2.1267C13.6667 0.936911 13.0326 0.333313 11.7705 0.333313H2.0483C0.961348 0.333313 0.333328 0.931108 0.333328 2.1267V8.53413C0.333328 9.73552 0.967386 10.3333 2.22946 10.3333H11.9517ZM7.01207 5.98624C6.77053 5.98624 6.53502 5.87597 6.2814 5.62641L1.72222 1.30255C1.85507 1.25032 2.01207 1.2213 2.19323 1.2213H11.8068C11.994 1.2213 12.157 1.25032 12.2899 1.31416L7.74275 5.62641C7.48309 5.87597 7.24758 5.98624 7.01207 5.98624ZM1.26328 8.63279C1.25724 8.60377 1.25724 8.56895 1.25724 8.53413V2.06866L4.72946 5.34202L1.26328 8.63279ZM12.7427 8.61538L9.29468 5.34202L12.7427 2.08607V8.61538ZM11.8068 9.44533H2.19323C2.02415 9.44533 1.87318 9.42211 1.75241 9.36988L5.36352 5.93981L5.75603 6.31126C6.17874 6.71172 6.58333 6.88003 7.01207 6.88003C7.43478 6.88003 7.84541 6.71172 8.26811 6.31126L8.66062 5.93981L12.2657 9.36407C12.1328 9.42211 11.9819 9.44533 11.8068 9.44533Z" fill="#7B8E98"/>
</svg>
