<svg width="14" height="14" viewBox="0 0 14 14" fill="none" xmlns="http://www.w3.org/2000/svg">
<path fill-rule="evenodd" clip-rule="evenodd" d="M9.91138 13.6666C11.1043 13.6666 11.8882 13.3463 12.5767 12.5692C12.6312 12.5147 12.6858 12.4533 12.7335 12.3988C13.1425 11.9421 13.3333 11.4922 13.3333 11.0627C13.3333 10.5719 13.047 10.1152 12.4404 9.6926L10.4567 8.31566C9.84322 7.89303 9.12747 7.84532 8.55487 8.41109L8.02999 8.93596C7.87321 9.09274 7.73688 9.09956 7.58691 9.00413C7.21881 8.77237 6.4758 8.12479 5.97137 7.62037C5.43967 7.0955 4.92843 6.50927 4.65576 6.07983C4.56714 5.92305 4.57396 5.79354 4.73074 5.63676L5.24881 5.11188C5.8214 4.53929 5.77369 3.81674 5.35106 3.21007L3.9741 1.22645C3.55147 0.619778 3.09475 0.3403 2.60395 0.333483C2.17451 0.326667 1.72461 0.524347 1.26789 0.933339C1.20654 0.987872 1.15201 1.03559 1.09748 1.0833C0.320382 1.77859 0 2.56249 0 3.74176C0 5.69129 1.19973 8.06345 3.4015 10.2652C5.58964 12.4533 7.96864 13.6666 9.91138 13.6666ZM9.9182 12.6169C8.17996 12.651 5.95092 11.3149 4.18541 9.55627C2.40627 7.78397 1.00886 5.47998 1.04294 3.74176C1.05658 2.99194 1.32243 2.34436 1.85412 1.88084C1.90184 1.83994 1.93592 1.80586 1.98364 1.77177C2.18814 1.59454 2.40627 1.49911 2.60395 1.49911C2.80164 1.49911 2.97887 1.57409 3.10838 1.77859L4.43081 3.76221C4.57396 3.97352 4.58759 4.2121 4.37628 4.42341L3.77641 5.02327C3.30607 5.49361 3.34015 6.0662 3.68098 6.52291C4.06953 7.04778 4.74438 7.81123 5.26926 8.32929C5.78732 8.85417 6.61213 9.59035 7.14383 9.98571C7.60055 10.3265 8.17314 10.3606 8.64349 9.89028L9.24335 9.29042C9.45467 9.07911 9.68643 9.09274 9.90457 9.22908L11.8882 10.5515C12.0927 10.6878 12.1677 10.8582 12.1677 11.0627C12.1677 11.2604 12.0723 11.4785 11.895 11.683C11.8541 11.7307 11.8269 11.7648 11.786 11.8125C11.3224 12.3442 10.6748 12.6033 9.9182 12.6169Z" fill="#7B8E98"/>
</svg>
