<svg width="28" height="22" viewBox="0 0 28 22" fill="none" xmlns="http://www.w3.org/2000/svg">
<path fill-rule="evenodd" clip-rule="evenodd" d="M27.1628 10.3528L23.0938 4.09751C22.9013 3.80155 22.5738 3.62329 22.2227 3.62329H17.1608V1.38318C17.1608 0.803339 16.6945 0.333313 16.1192 0.333313H1.70829C1.13298 0.333313 0.666626 0.803339 0.666626 1.38318V18.517C0.666626 19.0969 1.13298 19.5669 1.70829 19.5669H5.01246C5.44246 20.7889 6.60032 21.6666 7.95829 21.6666C9.31626 21.6666 10.4741 20.7889 10.9041 19.5669H18.2597C18.6897 20.7889 19.8476 21.6666 21.2055 21.6666C22.5635 21.6666 23.7213 20.7889 24.1514 19.5669H26.2916C26.8669 19.5669 27.3333 19.0969 27.3333 18.517V10.9284C27.3333 10.7239 27.274 10.5238 27.1628 10.3528ZM7.95833 19.5668C7.38396 19.5668 6.91667 19.0958 6.91667 18.5169C6.91667 17.938 7.38396 17.4671 7.95833 17.4671C8.53271 17.4671 9 17.938 9 18.5169C9 19.0958 8.53271 19.5668 7.95833 19.5668ZM15.0776 17.4672H10.9041C10.4741 16.2452 9.31625 15.3674 7.95828 15.3674C6.60031 15.3674 5.4425 16.2452 5.01245 17.4672H2.75V2.43304H15.0776V17.4672ZM21.2056 19.5668C20.6312 19.5668 20.1639 19.0958 20.1639 18.5169C20.1639 17.938 20.6312 17.4671 21.2056 17.4671C21.7799 17.4671 22.2472 17.938 22.2472 18.5169C22.2472 19.0958 21.7799 19.5668 21.2056 19.5668ZM25.25 17.4671H24.1513C23.7213 16.2451 22.5635 15.3673 21.2055 15.3673C19.8475 15.3673 18.6897 16.2451 18.2597 17.4671H17.1608V5.72292H21.66L25.25 11.2418V17.4671Z" fill="#7B8E98"/>
</svg>
