<svg width="24" height="30" viewBox="0 0 24 30" fill="none" xmlns="http://www.w3.org/2000/svg">
<path d="M11.3336 14.5023C11.1058 14.5023 10.8871 14.4117 10.726 14.2505L8.4057 11.9302C8.07001 11.5948 8.07001 11.0505 8.4057 10.715C8.74117 10.3793 9.28544 10.3793 9.62091 10.715L11.3336 12.4275L14.45 9.31115C14.7854 8.97568 15.3297 8.97568 15.6652 9.31115C16.0009 9.64685 16.0009 10.1909 15.6652 10.5266L11.9412 14.2505C11.7801 14.4117 11.5614 14.5023 11.3336 14.5023Z" fill="#7B8E98"/>
<path fill-rule="evenodd" clip-rule="evenodd" d="M12.0353 4.25112C7.88346 4.25112 4.50549 7.62887 4.50549 11.7809C4.50549 15.933 7.88346 19.3108 12.0353 19.3108C16.1874 19.3108 19.5654 15.933 19.5654 11.7809C19.5654 7.62887 16.1874 4.25112 12.0353 4.25112ZM12.0353 17.592C8.83124 17.592 6.22424 14.9853 6.22424 11.7809C6.22424 8.57664 8.83124 5.96987 12.0353 5.96987C15.2396 5.96987 17.8466 8.57664 17.8466 11.7809C17.8466 14.9853 15.2396 17.592 12.0353 17.592Z" fill="#7B8E98"/>
<path fill-rule="evenodd" clip-rule="evenodd" d="M23.3089 13.7686C23.4291 13.0881 23.3226 12.3901 23.0162 11.7809C23.3226 11.1717 23.4289 10.4737 23.3089 9.79291C23.189 9.11235 22.8504 8.49288 22.354 8.02515C22.4337 7.34795 22.2949 6.65575 21.9492 6.0571C21.6036 5.45845 21.0734 4.99206 20.4473 4.72238C20.2904 4.05883 19.9234 3.45593 19.3939 3.01147C18.8641 2.56724 18.2066 2.31032 17.5258 2.27116C17.1514 1.70115 16.6002 1.26005 15.9505 1.02372C15.3011 0.787393 14.5952 0.770832 13.9422 0.966877C13.3955 0.559346 12.7266 0.333313 12.0353 0.333313C11.3442 0.333313 10.6752 0.559346 10.1285 0.966877C9.47548 0.770832 8.76963 0.787393 8.11995 1.02372C7.4705 1.26027 6.91929 1.70137 6.54488 2.27116C5.8641 2.31054 5.20637 2.56724 4.67687 3.01147C4.14737 3.45593 3.78034 4.05883 3.62346 4.72261C2.99706 4.99228 2.46711 5.45845 2.12135 6.0571C1.77581 6.65575 1.63706 7.34795 1.71673 8.02515C1.22035 8.49288 0.881748 9.11235 0.761794 9.79291C0.641616 10.4737 0.748142 11.1717 1.05452 11.7809C0.748142 12.3901 0.641616 13.0881 0.761794 13.7686C0.881748 14.4494 1.22035 15.0689 1.71673 15.5366C1.63706 16.2138 1.77581 16.906 2.12135 17.5047C2.46711 18.1033 2.99728 18.5695 3.62346 18.8392C3.72999 19.2901 3.93387 19.7131 4.21965 20.0772L1.70196 25.3462C1.55985 25.6434 1.60035 25.9957 1.8058 26.2533C2.01147 26.5106 2.34604 26.6279 2.66741 26.5549L6.45984 25.6949L8.17322 29.1859C8.31757 29.4802 8.617 29.6666 8.94464 29.6666H8.94912C9.27854 29.665 9.57798 29.475 9.72009 29.1778L12.0353 24.3327L14.3506 29.1778C14.4925 29.475 14.792 29.6648 15.1214 29.6666H15.1261C15.4535 29.6666 15.7529 29.4802 15.8975 29.1859L17.6109 25.6949L21.4031 26.5549C21.7245 26.6279 22.059 26.5106 22.2647 26.2533C22.4704 25.9957 22.5107 25.6434 22.3685 25.3462L19.8508 20.0772C20.1366 19.7131 20.3405 19.2901 20.447 18.8392C21.0734 18.5695 21.6036 18.1033 21.9492 17.5047C22.2947 16.906 22.4334 16.2138 22.354 15.5366C22.8502 15.0689 23.189 14.4494 23.3089 13.7686ZM21.3266 12.3097C21.583 12.638 21.6884 13.061 21.6164 13.4703C21.5441 13.8796 21.3001 14.2408 20.9472 14.4617C20.6129 14.6707 20.4636 15.0805 20.5853 15.4556C20.714 15.8517 20.6686 16.2852 20.4607 16.6453C20.253 17.0052 19.9001 17.2614 19.4928 17.348C19.1072 17.4301 18.8268 17.7643 18.8129 18.1584C18.7981 18.5744 18.6072 18.9663 18.2888 19.2335C17.9703 19.5007 17.5514 19.6209 17.1389 19.5629C16.7484 19.5079 16.3706 19.7263 16.2229 20.0917C16.0669 20.4778 15.7534 20.7808 15.3626 20.9229C14.9721 21.065 14.5373 21.0346 14.1696 20.8392C13.8211 20.6541 13.3917 20.7298 13.1278 21.0229C12.8492 21.3322 12.4508 21.5097 12.0353 21.5097C11.6197 21.5097 11.2213 21.3322 10.9427 21.0229C10.7753 20.837 10.5414 20.7387 10.304 20.7387C10.1668 20.7387 10.0285 20.7714 9.90092 20.8392C9.53344 21.0346 9.09839 21.065 8.70786 20.9229C8.31734 20.7808 8.0038 20.4778 7.8476 20.0917C7.69989 19.7263 7.32235 19.5083 6.9316 19.5629C6.51915 19.6206 6.1002 19.5007 5.78174 19.2335C5.46328 18.9663 5.27239 18.5744 5.25761 18.1584C5.24374 17.7643 4.96355 17.4301 4.57773 17.348C4.17064 17.2614 3.81772 17.0052 3.60981 16.6453C3.40213 16.2852 3.3567 15.8517 3.48516 15.4556C3.6069 15.0805 3.45763 14.6707 3.12328 14.4617C2.77036 14.2408 2.52642 13.8796 2.45436 13.4703C2.38207 13.061 2.4877 12.638 2.74395 12.3097C2.98654 11.9989 2.98654 11.5629 2.74395 11.2521C2.4877 10.9237 2.38207 10.5008 2.45436 10.0915C2.52642 9.68213 2.77036 9.3207 3.12328 9.10004C3.45763 8.89102 3.6069 8.48125 3.48516 8.10617C3.3567 7.71005 3.40213 7.27656 3.60981 6.91647C3.81772 6.55661 4.17042 6.30036 4.57773 6.21375C4.96332 6.13162 5.24374 5.79749 5.25761 5.40339C5.27239 4.98736 5.46328 4.59549 5.78174 4.32828C6.09998 4.06107 6.51915 3.94111 6.9316 3.99885C7.32212 4.05391 7.69967 3.83548 7.8476 3.4698C8.0038 3.08398 8.31734 2.78096 8.70786 2.63885C9.09839 2.49652 9.53322 2.52718 9.90092 2.72255C10.2491 2.9074 10.6788 2.83176 10.9427 2.53881C11.2215 2.22953 11.6197 2.05206 12.0353 2.05206C12.4511 2.05206 12.8492 2.22953 13.1278 2.53881C13.3919 2.83176 13.8214 2.90763 14.1696 2.72255C14.5373 2.52718 14.9723 2.49674 15.3629 2.63885C15.7534 2.78096 16.0669 3.08398 16.2229 3.47003C16.3708 3.83548 16.7486 4.05368 17.1391 3.99885C17.5514 3.94111 17.9705 4.06107 18.289 4.32828C18.6072 4.59549 18.7983 4.98736 18.8129 5.40339C18.827 5.79772 19.1072 6.13162 19.493 6.21375C19.9001 6.30036 20.253 6.55661 20.4607 6.91647C20.6686 7.27656 20.714 7.71005 20.5856 8.10617C20.4638 8.48125 20.6129 8.89102 20.9472 9.10004C21.3004 9.32093 21.5443 9.68235 21.6164 10.0915C21.6887 10.5008 21.583 10.9237 21.3268 11.2521C21.084 11.5629 21.084 11.9989 21.3266 12.3097ZM17.3287 23.8685C16.9404 23.7806 16.5425 23.9706 16.367 24.328L15.1364 26.8358L13.2894 22.9706C13.5204 22.8717 13.7397 22.7459 13.9422 22.5949C14.5952 22.7909 15.3011 22.7744 15.9508 22.538C16.6002 22.3017 17.1514 21.8604 17.5258 21.2906C17.8376 21.2727 18.144 21.2085 18.4358 21.1024L20.0529 24.4864L17.3287 23.8685ZM7.7037 24.328C7.55689 24.0292 7.25454 23.8472 6.9325 23.8472C6.86939 23.8472 6.80561 23.8542 6.74205 23.8685L4.01779 24.4862L5.63493 21.1022C5.92676 21.2085 6.23336 21.2725 6.54488 21.2906C6.91929 21.8604 7.4705 22.3015 8.11995 22.5378C8.76963 22.7744 9.47548 22.7907 10.1285 22.5949C10.3311 22.7457 10.5504 22.8717 10.7813 22.9704L8.93435 26.8356L7.7037 24.328Z" fill="#7B8E98"/>
</svg>
