<svg width="80" height="80" viewBox="0 0 80 80" fill="none" xmlns="http://www.w3.org/2000/svg">
<path fill-rule="evenodd" clip-rule="evenodd" d="M40.0001 6.66663C58.4096 6.66663 73.3334 21.5905 73.3334 40C73.3334 58.4095 58.4096 73.3333 40.0001 73.3333C21.5906 73.3333 6.66675 58.4095 6.66675 40C6.66675 21.5905 21.5906 6.66663 40.0001 6.66663ZM40 12.3333C24.7201 12.3333 12.3333 24.7201 12.3333 40C12.3333 55.2799 24.7201 67.6667 40 67.6667C55.2799 67.6667 67.6667 55.2799 67.6667 40C67.6667 24.7201 55.2799 12.3333 40 12.3333ZM35.6156 35.8132C35.6156 34.4435 34.54 33.3333 33.2132 33.3333C31.8864 33.3333 30.8108 34.4435 30.8108 35.8132L30.7934 36.2498C30.55 39.237 27.751 40.7729 22.4024 40.7729C21.0756 40.7729 20 41.8832 20 43.2528C20 44.6224 21.0756 45.7327 22.4024 45.7327C30.3095 45.7327 35.6156 42.544 35.6156 35.8132ZM51.5321 55.2227C48.4748 52.7755 44.4054 51.3978 40.0964 51.3978C35.676 51.3978 31.5093 52.848 28.4309 55.4103C27.356 56.3049 27.1873 57.9296 28.0539 59.0391C28.9206 60.1486 30.4945 60.3228 31.5693 59.4282C33.7387 57.6225 36.7942 56.559 40.0964 56.559C43.3178 56.559 46.3061 57.5708 48.4681 59.3014C49.5592 60.1747 51.1296 59.9697 51.9757 58.8434C52.8218 57.7171 52.6232 56.096 51.5321 55.2227ZM46.7868 33.3333C45.46 33.3333 44.3844 34.4436 44.3844 35.8132C44.3844 42.544 49.6906 45.7327 57.5976 45.7327C58.9244 45.7327 60 44.6224 60 43.2528C60 41.8832 58.9244 40.7729 57.5976 40.7729C51.9943 40.7729 49.1892 39.0872 49.1892 35.8132C49.1892 34.4436 48.1136 33.3333 46.7868 33.3333Z" fill="#ECEFF1"/>
</svg>
